<svg width="32" height="32" viewBox="0 0 32 32" fill="none" xmlns="http://www.w3.org/2000/svg">
<rect width="32" height="32" rx="8" fill="url(#paint0_linear_165_173)"/>
<g filter="url(#filter0_d_165_173)">
<path d="M24.9072 5.71747C25.3523 5.26271 25.9571 5.00478 26.5894 5.00007C27.2218 4.99535 27.8303 5.24423 28.282 5.69231C28.7336 6.14039 28.9917 6.75123 28.9998 7.39135C29.0079 8.03146 28.7653 8.64879 28.3252 9.10843L15.5889 25.2261C15.3701 25.4646 15.1061 25.656 14.8126 25.7889C14.5191 25.9218 14.2021 25.9934 13.8807 25.9996C13.5592 26.0057 13.2398 25.9462 12.9416 25.8246C12.6434 25.703 12.3724 25.5219 12.1449 25.2919L3.70059 16.7471C3.25186 16.2926 2.99985 15.6763 3 15.0338C3.00015 14.3912 3.25245 13.7751 3.7014 13.3208C4.15035 12.8666 4.75917 12.6115 5.39392 12.6116C6.02868 12.6118 6.63737 12.8672 7.0861 13.3216L13.7645 20.0838L24.8438 5.79312C24.8639 5.76712 24.8856 5.7424 24.9088 5.71912L24.9072 5.71747Z" fill="white"/>
</g>
<defs>
<filter id="filter0_d_165_173" x="3" y="5" width="26" height="23" filterUnits="userSpaceOnUse" color-interpolation-filters="sRGB">
<feFlood flood-opacity="0" result="BackgroundImageFix"/>
<feColorMatrix in="SourceAlpha" type="matrix" values="0 0 0 0 0 0 0 0 0 0 0 0 0 0 0 0 0 0 127 0" result="hardAlpha"/>
<feOffset dy="2"/>
<feColorMatrix type="matrix" values="0 0 0 0 0 0 0 0 0 0 0 0 0 0 0 0 0 0 0.1 0"/>
<feBlend mode="normal" in2="BackgroundImageFix" result="effect1_dropShadow_165_173"/>
<feBlend mode="normal" in="SourceGraphic" in2="effect1_dropShadow_165_173" result="shape"/>
</filter>
<linearGradient id="paint0_linear_165_173" x1="16" y1="0" x2="16" y2="32" gradientUnits="userSpaceOnUse">
<stop stop-color="#89F09C"/>
<stop offset="1" stop-color="#3CC755"/>
</linearGradient>
</defs>
</svg>
